<svg xmlns="http://www.w3.org/2000/svg" width="720" height="960" fill="none"><g clip-path="url(#a)"><path fill="#F2E6DC" d="M0 0h720v960H0z"/><g clip-path="url(#b)"><path fill="#F2E6DC" d="M719.943 810H-1.07V353h721.013v457Z"/><path fill="#F2E6DC" d="M720 1v809H543V1h177Z"/><path fill="#73B5EF" d="M720 1012H-1V757h721v255Z"/><path fill="#fff" d="M719.943 756.617H-1.07v-15.935h721.013v15.935Z"/><path fill="#006B4E" d="m74.766 726.681-1.708-.028c0-.228.313-23.106 2.732-41.062 3.13-23.22 10.13-39.098 10.216-39.24l1.565.683c-.086.17-6.972 15.821-10.074 38.785-2.418 17.87-2.703 40.635-2.731 40.862ZM65.09 725.572c0-.228-.313-23.021-2.703-40.863-3.102-22.992-10.016-38.614-10.073-38.785l1.565-.683c.085.142 7.057 15.992 10.215 39.241 2.42 17.955 2.732 40.834 2.732 41.061l-1.736.029Z"/><path fill="#006B4E" d="M66.826 722.157c0-.455-.313-45.387-2.732-63.229-3.102-22.992-9.988-38.643-10.073-38.785l1.593-.711c.057.17 7.057 16.02 10.187 39.269 2.42 17.955 2.732 63.001 2.732 63.456h-1.707Z"/><path fill="#8A5064" d="M89.761 756.617h-1.735l-5.15-34.346 1.706-.256 5.18 34.602ZM50.321 756.617h-1.735l5.179-34.602 1.707.256-5.15 34.346Z"/><path fill="#A0DDFE" d="M48.984 730.381v-11.667H90.5v11.667c0 11.467-9.305 20.744-20.773 20.744-11.44 0-20.744-9.277-20.744-20.744Z"/><path fill="#8A5064" d="M91.696 723.011H47.788v-1.708h43.908v1.708Z"/><path fill="#8A5064" d="M59.513 756.617H57.75l5.207-34.602 1.708.256-5.15 34.346Z"/><path fill="#006B4E" d="M13.072 580.703c.427 0 .598-1.878.541-4.923a45.703 45.703 0 0 1 3.927-.057c.285 3.984.825 6.631 1.508 6.716.712.085 1.395-2.476 1.907-6.488 1.67.19 3.367.465 5.093.825-.996 5.009-.996 8.708.171 9.163 1.224.484 3.386-2.675 5.464-7.626a53.37 53.37 0 0 1 5.406 2.134c-3.585 6.118-5.406 11.326-4.097 12.236 1.365.939 5.605-3.073 9.874-9.191a57.234 57.234 0 0 1 6.118 4.183c-5.92 5.378-9.562 10.756-8.196 12.236 1.395 1.537 7.627-1.651 14-7.171a102.323 102.323 0 0 1 4.326 4.411c-6.545 4.325-10.813 8.793-9.703 10.272 1.138 1.508 7.398-.597 14.313-4.723 1.622 2.276 2.703 4.24 3.33 5.975-.248.095-.494.181-.74.256-6.489 2.305-11.212 5.122-10.53 6.289.627 1.11 5.834.37 11.895-1.65-1.195 6.971-12.72 7-12.72 7L6.983 576.719c1.46-.341 2.96-.597 4.496-.768.598 2.931 1.167 4.752 1.594 4.752Z"/><path fill="#00A075" d="M25.195 601.191c-.996-1.252-6.061 1.025-11.838 5.151a63.415 63.415 0 0 1-2.59-5.207c4.753-2.505 7.712-4.923 7.115-6.09-.54-1.138-4.24-.797-9.134.626a44.09 44.09 0 0 1-1.281-5.008c3.955-.825 6.431-1.764 6.289-2.447-.143-.683-2.817-.996-6.83-.939a45.343 45.343 0 0 1-.284-3.87c3.016-.228 4.894-.57 4.866-.996-.057-.427-1.907-.826-4.895-1.139.038-1.555.162-3.073.37-4.553L54.96 620.57s1.024 11.468-5.862 13.26c1.48-6.203 1.764-11.467.597-11.98-1.223-.569-3.614 4.383-5.32 11.041l-.172.74c-1.792-.455-3.87-1.366-6.288-2.789 3.5-7.227 5.065-13.658 3.443-14.626-1.565-.996-5.663 3.671-9.39 10.557a124.723 124.723 0 0 1-4.753-3.927c4.923-6.829 7.57-13.317 5.89-14.569-1.593-1.224-6.63 2.874-11.467 9.248a57.612 57.612 0 0 1-4.724-5.72c5.72-4.78 9.362-9.361 8.281-10.614Z"/><path fill="#006B4E" d="M120.095 652.298v12.264a4.466 4.466 0 0 0-.313.228c-4.781-9.134-9.931-15.679-11.753-14.825-1.906.882.484 9.362 5.322 19.037a65.606 65.606 0 0 1-5.464 2.902c-3.528-9.362-7.626-16.191-9.39-15.622-1.822.569-.626 8.622 2.646 18.297-2.732.797-5.037 1.11-7.028 1.024a13.933 13.933 0 0 0-.143-.939c-1.337-8.366-3.557-14.996-4.951-14.768-1.309.227-1.394 6.459-.256 14.199-7.313-4.524-5.35-17.529-5.35-17.529l36.68-22.65v11.553c-1.452-1.025-2.504-1.395-2.96-.996-.797.711.399 3.727 2.96 7.825Z"/><path fill="#4F6B17" d="M120.096 664.562v-12.264c1.394 2.248 3.158 4.809 5.235 7.512a46.371 46.371 0 0 1-5.235 4.752ZM120.096 645.469v-11.553l18.61-11.525c.114 1.802.132 3.614.057 5.435-3.244-.683-5.293-.854-5.379-.37-.056.455 1.935 1.537 5.208 2.846a50.811 50.811 0 0 1-.598 4.439c-4.353-1.48-7.256-2.077-7.484-1.338-.199.769 2.419 2.704 6.631 5.094a49.45 49.45 0 0 1-1.736 5.378c-5.236-3.415-9.191-5.093-9.874-3.984-.74 1.167 2.276 5.037 7.256 9.647a47.94 47.94 0 0 1-3.187 5.122c-3.699-4.24-7.143-7.541-9.504-9.191Z"/><path fill="#00A075" d="M120.095 615.988v17.928l-36.68 22.65s-12.52-4.097-13.289-12.662c6.431 4.496 12.037 7.199 12.806 6.146.825-1.138-4.098-6.09-10.984-11.041-.247-.19-.503-.379-.769-.569.797-1.793 2.135-3.728 4.07-5.805 7.17 7.256 13.829 11.923 15.166 10.557 1.31-1.337-2.987-8.053-9.788-15.423a78.456 78.456 0 0 1 5.036-3.557c6.517 8.651 13.033 14.598 14.655 13.289 1.594-1.252-1.963-8.793-7.996-17.159a45.765 45.765 0 0 1 6.972-2.732c4.154 8.651 8.479 14.826 10.016 14.2 1.48-.598-.085-7.313-3.528-15.708a47.601 47.601 0 0 1 6.004-.569c1.906 6.516 4.012 10.956 5.378 10.813 1.28-.114 1.565-4.41.882-10.614.683.076 1.366.162 2.049.256ZM138.706 622.391l-18.61 11.525v-17.928c1.176.152 2.352.351 3.528.598.228 4.838.797 8.053 1.565 8.224.768.114 1.565-2.732 2.163-7.285 1.442.417 2.855.892 4.24 1.423-.285 3.528-.228 5.805.227 5.947.456.142 1.196-1.764 2.049-4.98 1.67.74 3.282 1.565 4.838 2.476Z"/><path fill="#006B4E" d="M-1.07 644.416v-9.533l55.745 10.415 1.423 15.053s-38.5-5.464-57.168-15.935Z"/><path fill="#00A075" d="M54.675 645.298s-6.061 15.195-20.26 17.472c2.447-5.948 4.467-15.736-.029-16.988-4.496-1.281-5.777 9.589-5.492 17.215-1.593-.113-3.272-.398-5.037-.853-.986-.266-1.973-.541-2.96-.826 1.11-2.987 5.948-16.362 3.87-16.703-1.962-.313-4.097 12.037-4.808 16.447-3.67-1.052-7.143-2.191-10.358-3.443 3.3-2.504 13.004-10.471 6.83-13.858-6.887-3.727-10.928 9.96-11.468 11.895-2.2-1.025-4.212-2.115-6.033-3.273v-5.577l5.008-6.289-5.008 3.813v-9.447l55.745 10.415Z"/><path fill="#fff" d="M719.944 353v109.242h-38.103V353h38.103Z"/><path fill="#8A5064" d="M719.943 355.419v2.504h-43.651v-2.504h43.651ZM719.943 361.252v2.504h-43.651v-2.504h43.651ZM719.943 367.114v2.504h-43.651v-2.504h43.651ZM719.943 372.976v2.504h-43.651v-2.504h43.651ZM719.943 378.838v2.504h-43.651v-2.504h43.651Z"/><path fill="#00934B" d="M585.746 420.355h73.615v108.986h-73.615V420.355Z"/><path fill="#703F50" fill-rule="evenodd" d="M585.348 419.985h74.383V529.71h-74.383V419.985Zm71.338 3.045h-68.294v103.664h68.294V423.03Z" clip-rule="evenodd"/><path fill="#D2FEE9" d="M599.405 437.798h46.297v74.099h-46.297v-74.099Z"/><path fill="#A0DDFE" fill-rule="evenodd" d="M595.506 433.701h54.635v82.038h-54.635v-82.038Zm53.981.654H596.16v80.701h53.327v-80.701Z" clip-rule="evenodd"/><path fill="#703F50" d="M719.943 743.015v13.858H586.685v-13.858h133.258Z"/><path fill="#fff" d="M719.943 617.98v125.035H586.685V617.98h133.258Z"/><path fill="#A0DDFE" d="M719.943 628.196v2.077H586.685v-2.077h133.258Z"/><path fill="#A0DDFE" d="M674.215 629.22h2.077v113.767h-2.077V629.22ZM667.983 650.363h2.077v28.399h-2.077v-28.399Z"/><path fill="#A0DDFE" d="M719.943 664.562v2.078h-44.676v-2.078h44.676ZM719.943 705.795v2.077h-44.676v-2.077h44.676Z"/><path fill="#703F50" fill-rule="evenodd" d="M619.125 576.947h5.89l5.549 7.342c1.764-2.561 4.155-4.695 6.915-6.204 0 0 6.175-5.179 6.175-14.654 0-9.476-3.244-15.48-3.244-15.48h13.175s-1.622 3.044-2.59 8.195h8.395c4.126 0 7.854 1.935 10.244 5.321 2.362 3.358 2.931 7.541 1.537 11.411l-5.549 15.48a19.975 19.975 0 0 1 1.195 9.874v.029c-.37 2.76-6.886 19.719-6.886 19.719h-25.867s-5.634-14.768-6.118-16.276c0 0-3.756-9.021-3.215-14.456.54-5.122-5.606-10.301-5.606-10.301Zm37.391 1.138a19.874 19.874 0 0 1 6.886 6.147l4.496-12.521c1.025-2.817.626-5.805-1.11-8.252-1.707-2.447-4.41-3.841-7.398-3.841h-8.85a39.568 39.568 0 0 0-.199 3.813c0 9.475 6.175 14.654 6.175 14.654Z" clip-rule="evenodd"/><path fill="#3C6728" d="M619.694 599.598h-3.301c-.939-1.195-1.195-2.618-1.195-2.618s1.935.085 3.329 1.337c.455.427.854.854 1.167 1.281Z"/><path fill="#00A075" d="M619.864 596.923c.74.939 1.281 1.907 1.509 2.675h-2.988a7.772 7.772 0 0 1-.712-.825c-1.394-1.708-1.451-4.041-1.451-4.041s2.22.455 3.642 2.191Z"/><path fill="#3C6728" d="M621.685 595.984c.341 1.394.427 2.675.285 3.614h-2.419c-.427-.74-.797-1.736-1.053-2.817-.598-2.533.512-5.009.512-5.009s2.077 1.679 2.675 4.212ZM625.384 598.403c1.394-1.252 3.301-1.338 3.301-1.338s-.228 1.338-1.11 2.533h-3.301a7.122 7.122 0 0 1 1.11-1.195Z"/><path fill="#00A075" d="M627.661 594.817s-.028 2.334-1.422 4.069a25.4 25.4 0 0 1-.626.712h-3.074c.257-.768.769-1.679 1.509-2.561 1.394-1.736 3.613-2.22 3.613-2.22Z"/><path fill="#3C6728" d="M624.617 591.858s1.109 2.476.512 5.008c-.256 1.053-.598 1.992-.996 2.732h-2.476c-.114-.939-.028-2.191.285-3.529.597-2.532 2.675-4.211 2.675-4.211Z"/><path fill="#00A075" d="M621.657 590.663s1.678 2.305 1.678 5.122c0 1.508-.199 2.874-.569 3.813h-2.219c-.342-.939-.569-2.305-.569-3.813 0-2.817 1.679-5.122 1.679-5.122Z"/><path fill="#B37B57" d="M616.194 599.598h11.467v9.931h-11.467v-9.931Z"/><path fill="#F9BE98" d="M616.194 600.821h11.467v.313h-11.467v-.313Z"/><path fill="#D1D3D4" d="M629.511 617.98h-15.708v-14.996c0-.569.484-1.053 1.082-1.053h13.573a1.05 1.05 0 0 1 1.053 1.053v14.996Z"/><path fill="#F9BE98" d="M644.535 585.285h-5.094v-7.342h5.094v7.342Z"/><path fill="#FFDDB0" d="M647.409 617.98H636.71v-33.037a3.316 3.316 0 0 1 3.329-3.329h4.041c1.85 0 3.329 1.48 3.329 3.329v33.037ZM645.361 576.833v.456c0 .37-.313.654-.655.654h-5.264a.643.643 0 0 1-.654-.654v-.456c0-.37.284-.654.654-.654h5.264c.342 0 .655.284.655.654Z"/><path fill="#703F50" d="M299.907 756.617h-1.337l-18.183-151.613 1.309-.17 18.211 151.783Z"/><path fill="#00A075" d="M248.003 552.617c9.163 0 16.59 7.427 16.59 16.59h-33.179c0-9.163 7.427-16.59 16.589-16.59Z"/><path fill="#00A075" d="M249.455 554.04c8.366 0 15.139 6.801 15.139 15.167h-30.306c0-8.366 6.773-15.167 15.167-15.167Z"/><path fill="#00A075" d="M265.988 546.414c12.577 0 22.764 10.216 22.764 22.793h-45.529c0-12.577 10.187-22.793 22.765-22.793Z"/><path fill="#00A075" d="M267.951 548.406c11.496 0 20.801 9.305 20.801 20.801H247.15c0-11.496 9.305-20.801 20.801-20.801Z"/><path fill="#00A075" d="M281.582 550.825c10.158 0 18.382 8.223 18.382 18.382h-36.765c0-10.159 8.224-18.382 18.383-18.382Z"/><path fill="#00A075" d="M268.634 557.483a11.707 11.707 0 0 1 11.724 11.724H256.91c0-6.488 5.265-11.724 11.724-11.724Z"/><path fill="#00A075" d="M283.63 552.873c9.021 0 16.334 7.314 16.334 16.334h-32.667c0-9.02 7.313-16.334 16.333-16.334Z"/><path fill="#006B4E" d="M282.293 574.557c-4.098 0-7.711-2.134-9.789-5.35h19.606a11.662 11.662 0 0 1-9.817 5.35ZM254.975 575.61a13.987 13.987 0 0 1-11.752-6.403h23.505c-2.504 3.842-6.83 6.403-11.753 6.403Z"/><path fill="#006B4E" d="M271.622 573.162c-3.045 0-5.72-1.593-7.257-3.955h14.484c-1.536 2.362-4.211 3.955-7.227 3.955ZM265.049 580.988c0 6.175 8.309 9.846 8.395 9.874l.398.199v6.004h-1.366v-5.122c-1.821-.882-8.793-4.666-8.793-10.955v-9.817h1.366v9.817Z"/><path fill="#006B4E" d="M264.366 579.224c.171.095.294.17.37.227l-.74 1.167a5.309 5.309 0 0 0-.284-.171c-1.309-.683-5.35-2.817-5.35-7h1.394c0 3.358 3.472 5.179 4.61 5.777Z"/><path fill="#006B4E" d="M256.228 575.98c1.593 1.223 4.24.711 4.268.682l.285 1.366c-.057.029-.712.143-1.622.143-1.11 0-2.59-.2-3.756-1.082-1.082-.796-1.679-2.02-1.765-3.614l1.366-.085c.086 1.195.484 2.02 1.224 2.59ZM273.415 571.171h1.395c0 4.78-.712 8.309-2.106 10.471-1.224 1.907-1.878 4.212-1.878 6.659v1.48h-1.366v-1.48c0-2.732.711-5.293 2.077-7.427.854-1.309 1.878-4.098 1.878-9.703Z"/><path fill="#006B4E" d="m283.09 571.996 1.082.825c-.2.256-4.952 6.374-10.87 6.374v-1.394c5.207 0 9.731-5.748 9.788-5.805ZM271.308 583.094c.228.426.342.654.228.996l-1.309-.484c-.085.227-.028.398 0 .398a5.76 5.76 0 0 1-.171-.284c-.683-1.338-2.788-5.464-2.788-13.716h1.366c0 7.911 2.02 11.809 2.674 13.09Z"/><path fill="#00A075" d="M268.408 592.911c5.805 0 10.5 4.695 10.5 10.5h-21c0-5.805 4.695-10.5 10.5-10.5Z"/><path fill="#00A075" d="M271.537 594.077c5.151 0 9.334 4.183 9.334 9.334h-18.667c0-5.151 4.183-9.334 9.333-9.334Z"/><path fill="#201F1E" d="M279.874 634.94h-24.927l-5.236-33.805h35.826l-5.663 33.805Z"/><path fill="#703F50" d="M286.249 605.175h-36.793v-1.337h36.793v1.337Z"/><path fill="#703F50" d="M242.313 756.617h-1.337l13.915-151.755 1.337.114-13.915 151.641Z"/><path fill="#8A5064" d="M289.805 677.282h-40.891v-1.081h40.891v1.081Z"/><path fill="#703F50" d="M272.675 756.617h-1.338l-4.04-152.096 1.309-.029 4.069 152.125Z"/><path fill="#FCB52D" d="M248.545 600.508v104.718H115.542V600.508a7.432 7.432 0 0 1 7.427-7.426h118.177c4.098 0 7.399 3.329 7.399 7.426Z"/><path fill="#91674C" d="M190.21 682.091h-73.445v-32.496l73.445 32.496Z" opacity=".2" style="mix-blend-mode:multiply"/><path fill="#703F50" d="M122.77 682.091H86.062v-32.496h30.704a5.987 5.987 0 0 1 6.004 6.004v26.492Z"/><path fill="#FCB52D" d="M256.37 708.584H107.717v-26.493H256.37v26.493Z"/><path fill="#FCB52D" d="M256.37 744.779H107.717v-36.622H256.37v36.622Z"/><path fill="#703F50" d="M275.72 756.617H87.741v-11.838H275.72v11.838ZM256.37 709.551H107.717v-2.789H256.37v2.789Z"/><path fill="#FCB52D" d="M80.03 649.595h21.227c3.557 0 6.46 2.902 6.46 6.459v88.725H73.542v-88.725c0-3.557 2.902-6.459 6.487-6.459Z"/><path fill="#703F50" d="M241.318 655.912c0-3.5 2.845-6.317 6.345-6.317h30.363v32.496h-36.708v-26.179Z"/><path fill="#FCB52D" d="M290.546 656.054v88.725h-34.175v-88.725c0-3.557 2.902-6.459 6.487-6.459h21.228c3.557 0 6.46 2.902 6.46 6.459Z"/><path fill="#703F50" d="M110.506 744.779h-2.789v-62.688h2.789v62.688ZM256.37 744.779h-2.788v-62.688h2.788v62.688ZM206.287 682.091h-47.322v-30.704l47.322 30.704Z"/><path fill="#73B5EF" d="M151.396 611.521s11.724 15.338 16.106 27.09c4.354 11.752 8.879 43.48 8.879 43.48h-57.823s-10.671-8.622-17.671-27.516c-9.475-25.639-11.439-43.054-11.439-43.054h61.948Z"/><path fill="#703F50" d="m103.875 624.127 22.167 50.31s-4.78-38.444-22.167-50.31Z"/><path fill="#F8C85E" d="M255.175 679.986a4.64 4.64 0 0 1-4.639 4.638H113.55c-2.561 0-4.61-2.077-4.61-4.638 0-2.562 2.049-4.639 4.61-4.639h136.986a4.64 4.64 0 0 1 4.639 4.639Z"/><path fill="#332938" d="M248.943 627.883h4.752v8.195h-4.752v-8.195Z"/><path fill="#fff" d="M389.457 717.889a2.878 2.878 0 0 1-2.874 2.931c-1.593.028-2.902-1.252-2.931-2.874a2.933 2.933 0 0 1 2.874-2.931c1.594 0 2.931 1.28 2.931 2.874Z"/><path fill="#332938" d="m478.098 776.536 177.934 7.882-207.528.114 29.594-7.996Z"/><path fill="#fff" d="M482.792 740.312v44.22h-43.537s-.114-1.451.114-3.557c.038-.341.095-.702.171-1.081.483-2.874 1.707-6.573 4.695-9.362.417-.399.854-.768 1.309-1.11l.398-.285c5.606-3.756 8.452-5.491 8.452-12.577v-16.248h28.398Z"/><path fill="#332938" d="M450.922 665.758h5.805c14.399 0 26.066 11.666 26.066 26.065v53.298h-57.965v-53.298c0-14.399 11.667-26.065 26.094-26.065Z"/><path fill="#A35A5F" d="M454.394 745.121h28.399v11.439h-28.399v-11.439ZM482.792 779.894v1.081h-43.423c.038-.341.095-.702.17-1.081h43.253ZM482.793 736.072h-57.965v-1.195h57.965v1.195Z"/><path fill="#332938" d="m482.821 689.803-57.993-.057s2.875-64.538 11.497-94.417h46.496v94.474Z"/><path fill="#A35A5F" d="M480.63 735.389h-1.081l.683-88.298h1.081l-.683 88.298Z"/><path fill="#fff" d="M572.712 784.418h-43.537l-6.63-44.192h28.399l2.447 16.22c1.053 7.086 4.154 8.822 10.329 12.578 4.695 2.902 6.972 7.37 8.025 10.756.132.379.246.74.341 1.081.541 2.106.626 3.557.626 3.557Z"/><path fill="#332938" d="m548.696 691.937 7.968 53.098h-57.965l-7.968-53.098c-2.191-14.484 7.797-26.208 22.281-26.208h5.521c14.484 0 27.972 11.724 30.163 26.208Z"/><path fill="#A35A5F" d="M553.392 756.446h-28.399l-1.736-11.411h28.399l1.736 11.411ZM571.746 779.78c.132.379.246.74.341 1.081h-43.452l-.142-1.081h43.253ZM555.212 735.987h-57.964v-1.167h57.964v1.167Z"/><path fill="#332938" d="M476.191 595.386h46.497c19.151 29.822 25.667 94.303 25.667 94.303l-57.993.085-14.171-94.388Z"/><path fill="#A35A5F" d="m500.294 735.503-15.423-88.327 1.081-.171 15.423 88.299-1.081.199Z"/><path fill="#FCB52D" d="m429.551 595.984-14.484-12.407 21.399-39.468-6.915 51.875Z"/><path fill="#A35A5F" d="M405.849 603.354c-27.318-17.586-9.049-49.285-9.049-49.285l40.891 43.565s-12.777 17.985-31.842 5.72Z"/><path fill="#F8C85E" d="M543.318 648.912H422.182l14.284-104.803 40.351-32.411h16.191l39.298 24.443 11.012 112.771Z"/><path fill="#FCB52D" d="M496.394 513.775s-8.793 8.252-15.138 8.338c-6.374.085-8.224-7.37-8.224-7.37l3.785-3.045h16.191l3.386 2.077Z"/><path fill="#A35A5F" d="M463.528 766.889h-11.923v-1.109h11.923v1.109ZM465.747 764.272h-11.923v-1.082h11.923v1.082ZM467.968 761.682h-11.923v-1.081h11.923v1.081ZM556.948 766.52h-11.923v-1.11h11.923v1.11ZM554.728 763.93h-11.922v-1.11h11.922v1.11ZM552.509 761.312h-11.923v-1.081h11.923v1.081ZM476.675 780.065l-.968.512c-.057-.114-5.15-10.045-12.179-10.045h-19.293c.417-.399.854-.768 1.309-1.11h17.984c7.712 0 12.948 10.216 13.147 10.643ZM546.932 769.82h17.984c.475.342.911.712 1.309 1.11h-19.293c-7.028 0-12.122 9.931-12.008 9.675l-.968-.484c.029-.085 5.265-10.301 12.976-10.301Z"/><path fill="#A35A5F" fill-rule="evenodd" d="M530.798 705.909c-8.224 0-15.423-7.626-16.789-17.728-1.48-10.87 4.439-20.688 13.203-21.854a13.103 13.103 0 0 1 1.736-.114c8.195 0 15.423 7.598 16.789 17.699.711 5.236-.285 10.415-2.732 14.513-2.504 4.183-6.203 6.772-10.472 7.37-.588.076-1.166.114-1.735.114Zm-1.85-38.672c-.531 0-1.072.038-1.622.114-8.167 1.11-13.687 10.387-12.293 20.716 1.309 9.561 8.082 16.789 15.765 16.789.531 0 1.062-.038 1.593-.114 3.956-.541 7.399-2.959 9.704-6.829 2.361-3.927 3.272-8.85 2.589-13.858-1.28-9.59-8.053-16.818-15.736-16.818ZM443.695 705.909c-.588 0-1.176-.038-1.764-.114-4.269-.598-7.968-3.187-10.472-7.37-2.447-4.098-3.415-9.277-2.703-14.513 1.365-10.101 8.565-17.699 16.76-17.699.588 0 1.176.038 1.764.114 8.736 1.166 14.655 10.984 13.175 21.854-1.366 10.102-8.565 17.728-16.76 17.728Zm1.821-38.672c-7.683 0-14.456 7.228-15.736 16.818-.683 5.008.228 9.931 2.589 13.858 2.305 3.87 5.777 6.288 9.704 6.829.531.076 1.072.114 1.622.114 7.654 0 14.427-7.228 15.736-16.789 1.394-10.329-4.126-19.606-12.293-20.716a11.845 11.845 0 0 0-1.622-.114Z" clip-rule="evenodd"/><path fill="#332938" d="M486.776 447.9c16.362 0 29.623 12.663 29.623 28.257 0 15.622-13.261 28.285-29.623 28.285-16.362 0-29.622-12.663-29.622-28.285 0-15.594 13.26-28.257 29.622-28.257Z"/><path fill="#A35A5F" d="M476.817 492.832h16.192v18.866h-16.192v-18.866Z"/><path fill="#332938" d="m476.817 504.385 9.96-1.224-9.96 6.09v-4.866Z"/><path fill="#A35A5F" d="M468.906 499.405v-13.374c0-6.175 5.264-11.212 11.752-11.212s11.752 5.037 11.752 11.212v16.988l-15.906 2.76c-4.326.825-7.598-1.736-7.598-6.374Z"/><path fill="#332938" d="M486.891 470.636h6.63v18.923h-6.63v-18.923Z"/><path fill="#C75450" d="M469.589 489.73c1.536 0 2.817 1.423 2.817 3.187 0 1.736-1.281 3.159-2.817 3.159-.228 0-.484-.029-.683-.114v-6.118a2.63 2.63 0 0 1 .683-.114Z"/><path fill="#A35A5F" d="M494.573 485.319c2.96 0 5.35 2.391 5.35 5.35 0 2.96-2.39 5.378-5.35 5.378-2.959 0-5.378-2.418-5.378-5.378 0-2.959 2.419-5.35 5.378-5.35Z"/><path fill="#C75450" d="M483.532 489.645a3.345 3.345 0 0 1 3.358 3.357 3.345 3.345 0 0 1-3.358 3.358 3.364 3.364 0 0 1-3.357-3.358 3.363 3.363 0 0 1 3.357-3.357Z"/><path fill="#fff" d="m472.15 496.986 7.455-.797s-3.13 5.805-7.455.797Z"/><path fill="#332938" d="M482.309 489.275c0 .597-.484 1.053-1.053 1.053-.598 0-1.081-.456-1.081-1.053h2.134ZM473.032 489.275c0 .597-.484 1.053-1.081 1.053a1.051 1.051 0 0 1-1.053-1.053h2.134ZM474.683 493.97a.856.856 0 0 1-.285-.74v-1.081l.854-.029v1.11l.028.114v.028l2.135.029v.854l-1.935-.029a.32.32 0 0 1-.143.029.925.925 0 0 1-.654-.285Z"/><path fill="#FCB52D" d="M423.946 635.794h118.091l1.281 13.118H422.182l1.764-13.118Z"/><path fill="#A35A5F" d="M482.309 517.361c-4.61 0-5.492-5.663-5.492-5.663h16.192s-6.118 5.663-10.7 5.663Z"/><path fill="#FCB52D" d="m470.698 600.736.626-.597 10.358 10.357-.597.598-10.387-10.358ZM462.561 597.151l.597-.598 10.358 10.386-.598.598-10.357-10.386Z"/><path fill="#A35A5F" d="M507.379 613.513c-30.078-12.208-18.07-46.753-18.07-46.753l48.347 35.171s-9.248 20.09-30.277 11.582Z"/><path fill="#FCB52D" d="m538.879 603.326-30.22-22.48 23.646-44.705 6.574 67.185Z"/><path fill="#A35A5F" d="M388.519 560.329c-4.496-6.63-2.789-15.679 3.841-20.204l.37-.256c2.077-1.423 4.923-.882 6.346 1.224l1.65 2.418c4.525 6.631 2.789 15.68-3.841 20.204l-4.126 2.817-4.24-6.203ZM484.272 577.175c-12.52-3.358-19.919-16.192-16.561-28.712l8.394 2.276c12.493 3.358 19.92 16.192 16.562 28.684l-8.395-2.248Z"/><g clip-path="url(#c)"><path fill="#00934B" d="M439 495c0 34.237-27.763 62-62 62-34.237 0-62-27.763-62-62 0-34.237 27.763-62 62-62 34.237 0 62 27.763 62 62Z"/><path stroke="#BEF000" stroke-linecap="round" stroke-miterlimit="10" stroke-width="2.024" d="M391.649 464.951a33.961 33.961 0 0 1 7.608 5.102M346.202 508.003a33.493 33.493 0 0 1-2.634-13.004c0-6.474 1.847-12.51 5.029-17.63M406.39 479.071A33.22 33.22 0 0 1 410.432 495c0 12.181-6.511 22.843-16.259 28.678a33.315 33.315 0 0 1-17.155 4.737M350.901 451.307a50.638 50.638 0 0 1 26.098-7.206c11.852 0 22.752 4.042 31.403 10.846M333.892 522.031c-7.041-11.211-9.711-25.165-6.328-39.047a51.248 51.248 0 0 1 7.206-16.405M421.37 519.946c-8.742 15.491-25.331 25.934-44.369 25.934-10.517 0-20.283-3.182-28.385-8.65M427.881 495c0 4.92-.695 9.675-1.994 14.174"/><path fill="#BEF000" d="M377.001 473.95c11.631 0 21.05 9.419 21.05 21.051 0 11.631-9.419 21.05-21.05 21.05-11.632 0-21.051-9.419-21.051-21.05 0-11.632 9.419-21.051 21.051-21.051Z"/><path fill="#fff" d="M376.999 487.537c4.115 0 7.462 3.347 7.462 7.462s-3.347 7.462-7.462 7.462-7.462-3.347-7.462-7.462 3.347-7.462 7.462-7.462Z"/><path fill="#fff" d="M376.999 487.612c4.115 0 7.462 3.347 7.462 7.462s-3.347 7.462-7.462 7.462-7.462-3.347-7.462-7.462 3.347-7.462 7.462-7.462Z"/></g><path fill="#A35A5F" d="m396.77 545.987-7.968 4.041c-2.134 1.081-4.752.228-5.862-1.907-1.081-2.162-.227-4.78 1.907-5.862l7.968-4.069c2.162-1.081 4.78-.227 5.861 1.907a4.36 4.36 0 0 1-1.906 5.89Z"/><path fill="#fff" d="M259.785 464.234H134.808a5.344 5.344 0 0 1-5.35-5.35V427.64c0-2.96 2.39-5.35 5.35-5.35h124.977c2.96 0 5.35 2.39 5.35 5.35v31.244c0 2.959-2.39 5.35-5.35 5.35Z"/><path fill="#C6EAFD" d="M167.9 444.058c0 3.415-1.252 6.545-3.357 8.907a13.37 13.37 0 0 1-10.102 4.582 13.426 13.426 0 0 1-10.13-4.582 13.471 13.471 0 0 1-3.358-8.907c0-7.426 6.032-13.459 13.488-13.459 7.427 0 13.459 6.033 13.459 13.459Z"/><path fill="#6ABEFB" d="M159.307 440.9c0 2.703-2.191 4.894-4.866 4.894a4.894 4.894 0 0 1-4.894-4.894c0-2.675 2.191-4.866 4.894-4.866 2.675 0 4.866 2.191 4.866 4.866ZM164.543 452.965a13.368 13.368 0 0 1-10.102 4.582 13.426 13.426 0 0 1-10.13-4.582c1.906-3.642 5.719-6.146 10.13-6.146 4.382 0 8.224 2.504 10.102 6.146Z"/><path fill="#C6EAFD" d="M221.967 437.314h-45.444a2.222 2.222 0 0 1-2.22-2.219c0-1.224.996-2.248 2.22-2.248h45.444a2.27 2.27 0 0 1 2.248 2.248c0 1.224-1.024 2.219-2.248 2.219ZM221.967 445.51h-45.444c-1.224 0-2.22-1.025-2.22-2.248 0-1.224.996-2.248 2.22-2.248h45.444a2.27 2.27 0 0 1 2.248 2.248 2.272 2.272 0 0 1-2.248 2.248ZM207.341 453.677h-30.818c-1.224 0-2.22-1.025-2.22-2.248 0-1.224.996-2.248 2.22-2.248h30.818c1.223 0 2.219 1.024 2.219 2.248 0 1.223-.996 2.248-2.219 2.248ZM254.578 442.038c-.74 4.155-8.366 8.053-8.366 8.053s-7.655-3.898-8.395-8.053a4.772 4.772 0 0 1 3.87-5.52 4.783 4.783 0 0 1 4.525 1.679 4.782 4.782 0 0 1 4.524-1.679c2.59.455 4.297 2.931 3.842 5.52Z"/><path fill="#fff" d="M259.785 513.121H134.808c-2.96 0-5.35-2.419-5.35-5.378v-31.216c0-2.96 2.39-5.379 5.35-5.379h124.977c2.96 0 5.35 2.419 5.35 5.379v31.216c0 2.959-2.39 5.378-5.35 5.378Z"/><path fill="#C6EAFD" d="M167.9 492.945c0 3.415-1.252 6.517-3.357 8.879a13.369 13.369 0 0 1-10.102 4.581 13.426 13.426 0 0 1-10.13-4.581 13.398 13.398 0 0 1-3.358-8.879c0-7.455 6.032-13.459 13.488-13.459 7.427 0 13.459 6.004 13.459 13.459Z"/><path fill="#6ABEFB" d="M159.307 489.787a4.864 4.864 0 0 1-4.866 4.866c-2.703 0-4.894-2.163-4.894-4.866a4.894 4.894 0 0 1 4.894-4.894c2.675 0 4.866 2.191 4.866 4.894ZM164.543 501.824a13.367 13.367 0 0 1-10.102 4.581 13.426 13.426 0 0 1-10.13-4.581 11.402 11.402 0 0 1 10.13-6.118c4.382 0 8.224 2.475 10.102 6.118Z"/><path fill="#C6EAFD" d="M221.967 486.202h-45.444a2.229 2.229 0 0 1-2.22-2.248c0-1.224.996-2.22 2.22-2.22h45.444c1.224 0 2.248.996 2.248 2.22a2.253 2.253 0 0 1-2.248 2.248ZM221.967 494.368h-45.444a2.229 2.229 0 0 1-2.22-2.248c0-1.223.996-2.219 2.22-2.219h45.444c1.224 0 2.248.996 2.248 2.219a2.253 2.253 0 0 1-2.248 2.248ZM207.341 502.535h-30.818a2.222 2.222 0 0 1-2.22-2.219c0-1.252.996-2.248 2.22-2.248h30.818c1.223 0 2.219.996 2.219 2.248a2.222 2.222 0 0 1-2.219 2.219ZM254.578 490.897c-.74 4.183-8.366 8.053-8.366 8.053s-7.655-3.87-8.395-8.053a4.773 4.773 0 0 1 3.87-5.521 4.739 4.739 0 0 1 4.525 1.708 4.738 4.738 0 0 1 4.524-1.708c2.59.456 4.297 2.931 3.842 5.521Z"/><path fill="#fff" d="M259.785 561.979H134.808c-2.96 0-5.35-2.39-5.35-5.349v-31.245c0-2.959 2.39-5.35 5.35-5.35h124.977c2.96 0 5.35 2.391 5.35 5.35v31.245a5.343 5.343 0 0 1-5.35 5.349Z"/><path fill="#C6EAFD" d="M167.9 541.804c0 3.415-1.252 6.545-3.357 8.907a13.369 13.369 0 0 1-10.102 4.581 13.426 13.426 0 0 1-10.13-4.581 13.471 13.471 0 0 1-3.358-8.907c0-7.427 6.032-13.459 13.488-13.459 7.427 0 13.459 6.032 13.459 13.459Z"/><path fill="#6ABEFB" d="M159.307 538.645c0 2.704-2.191 4.895-4.866 4.895a4.894 4.894 0 0 1-4.894-4.895c0-2.674 2.191-4.865 4.894-4.865 2.675 0 4.866 2.191 4.866 4.865ZM164.543 550.711a13.367 13.367 0 0 1-10.102 4.581 13.426 13.426 0 0 1-10.13-4.581c1.906-3.642 5.719-6.146 10.13-6.146 4.382 0 8.224 2.504 10.102 6.146Z"/><path fill="#C6EAFD" d="M221.967 535.06h-45.444a2.222 2.222 0 0 1-2.22-2.219c0-1.224.996-2.248 2.22-2.248h45.444a2.27 2.27 0 0 1 2.248 2.248c0 1.223-1.024 2.219-2.248 2.219ZM221.967 543.255h-45.444c-1.224 0-2.22-1.024-2.22-2.248 0-1.223.996-2.248 2.22-2.248h45.444a2.272 2.272 0 0 1 2.248 2.248 2.27 2.27 0 0 1-2.248 2.248ZM207.341 551.422h-30.818c-1.224 0-2.22-1.024-2.22-2.248 0-1.223.996-2.248 2.22-2.248h30.818c1.223 0 2.219 1.025 2.219 2.248 0 1.224-.996 2.248-2.219 2.248ZM254.578 539.784c-.74 4.154-8.366 8.053-8.366 8.053s-7.655-3.899-8.395-8.053a4.773 4.773 0 0 1 3.87-5.521 4.785 4.785 0 0 1 4.525 1.679 4.784 4.784 0 0 1 4.524-1.679c2.59.456 4.297 2.931 3.842 5.521Z"/><path fill="#fff" d="M614.23 527.092h-56.968a4.262 4.262 0 0 1-4.268-4.268v-24.785c0-2.333 1.906-4.24 4.268-4.24h56.968a4.25 4.25 0 0 1 4.24 4.24v24.785c0 2.362-1.906 4.268-4.24 4.268Z"/><path fill="#C6EAFD" d="M581.733 511.1c0 2.704-1.024 5.151-2.674 7.057a10.691 10.691 0 0 1-8.025 3.614 10.643 10.643 0 0 1-8.024-3.614 10.592 10.592 0 0 1-2.675-7.057c0-5.918 4.78-10.699 10.699-10.699 5.89 0 10.699 4.781 10.699 10.699Z"/><path fill="#6ABEFB" d="M574.904 508.568c0 2.162-1.736 3.898-3.87 3.898-2.135 0-3.87-1.736-3.87-3.898a3.874 3.874 0 0 1 3.87-3.87 3.874 3.874 0 0 1 3.87 3.87ZM579.058 518.157a10.687 10.687 0 0 1-8.024 3.614 10.645 10.645 0 0 1-8.025-3.614c1.509-2.902 4.525-4.894 8.025-4.894s6.516 1.992 8.024 4.894Z"/><path fill="#C6EAFD" d="M608.453 505.722h-19.89a1.755 1.755 0 0 1-1.765-1.764c0-.968.797-1.764 1.765-1.764h19.89c.996 0 1.793.796 1.793 1.764 0 .996-.797 1.764-1.793 1.764ZM608.453 512.21h-19.89a1.774 1.774 0 0 1-1.765-1.764c0-.968.797-1.764 1.765-1.764h19.89c.996 0 1.793.796 1.793 1.764 0 .967-.797 1.764-1.793 1.764ZM596.843 518.698h-8.28a1.774 1.774 0 0 1-1.765-1.764c0-.996.797-1.793 1.765-1.793h8.28c.968 0 1.765.797 1.765 1.793 0 .967-.797 1.764-1.765 1.764Z"/><path fill="#fff" d="M614.23 566.105h-56.968a4.262 4.262 0 0 1-4.268-4.268v-24.785c0-2.362 1.906-4.24 4.268-4.24h56.968a4.232 4.232 0 0 1 4.24 4.24v24.785c0 2.362-1.906 4.268-4.24 4.268Z"/><path fill="#6ABEFB" d="M581.591 549.63c0 2.674-.996 5.122-2.646 6.971a10.475 10.475 0 0 1-7.911 3.586 10.583 10.583 0 0 1-7.939-3.586 10.555 10.555 0 0 1-2.618-6.971c0-5.805 4.724-10.529 10.557-10.529 5.834 0 10.557 4.724 10.557 10.529Z"/><path fill="#6ABEFB" d="m568.957 556.487-7.797 3.387 4.439-6.773 3.358 3.386Z"/><path fill="#C6EAFD" d="M608.453 544.735h-19.89a1.774 1.774 0 0 1-1.765-1.764c0-.996.797-1.793 1.765-1.793h19.89c.996 0 1.793.797 1.793 1.793 0 .967-.797 1.764-1.793 1.764ZM608.453 551.223h-19.89a1.774 1.774 0 0 1-1.765-1.764c0-.996.797-1.793 1.765-1.793h19.89c.996 0 1.793.797 1.793 1.793 0 .967-.797 1.764-1.793 1.764ZM596.843 557.711h-8.28c-.968 0-1.765-.797-1.765-1.793 0-.967.797-1.764 1.765-1.764h8.28c.968 0 1.765.797 1.765 1.764 0 .996-.797 1.793-1.765 1.793Z"/><path fill="#fff" d="M614.23 488.478h-56.968a4.262 4.262 0 0 1-4.268-4.268v-24.785c0-2.334 1.906-4.24 4.268-4.24h56.968a4.25 4.25 0 0 1 4.24 4.24v24.785c0 2.362-1.906 4.268-4.24 4.268Z"/><path fill="#6ABEFB" d="M579.286 470.864c-.854 4.78-9.561 9.191-9.561 9.191s-8.736-4.411-9.59-9.191c-.512-2.959 1.451-5.777 4.411-6.289 2.02-.37 3.955.455 5.179 1.935 1.195-1.48 3.13-2.305 5.15-1.935 2.96.512 4.923 3.33 4.411 6.289Z"/><path fill="#C6EAFD" d="M608.453 467.108h-19.89a1.774 1.774 0 0 1-1.765-1.765c0-.967.797-1.764 1.765-1.764h19.89c.996 0 1.793.797 1.793 1.764 0 .968-.797 1.765-1.793 1.765ZM608.453 473.596h-19.89a1.779 1.779 0 0 1 0-3.557h19.89c.996 0 1.793.796 1.793 1.792 0 .968-.797 1.765-1.793 1.765ZM596.843 480.084h-8.28a1.779 1.779 0 0 1 0-3.557h8.28a1.779 1.779 0 0 1 0 3.557Z"/></g></g><defs><clipPath id="a"><path fill="#fff" d="M0 0h720v960H0z"/></clipPath><clipPath id="b"><path fill="#fff" d="M-2 353h722v659H-2z"/></clipPath><clipPath id="c"><path fill="#fff" d="M315 433h124v124H315z"/></clipPath></defs></svg>